<?xml version="1.0" encoding="utf-8"?>
<!-- Generator: Adobe Illustrator 25.1.0, SVG Export Plug-In . SVG Version: 6.00 Build 0)  -->
<svg version="1.1" id="Capa_1" xmlns="http://www.w3.org/2000/svg" xmlns:xlink="http://www.w3.org/1999/xlink" x="0px" y="0px"
	 viewBox="0 0 35 35" style="enable-background:new 0 0 35 35;" xml:space="preserve">
<style type="text/css">
	.st0{fill:#666666;}
</style>
<path class="st0" d="M0.5,17.9c0,1.8,1.4,3.2,3.2,3.2H23l-8.5,8.1c-1.3,1.2-1.4,3.3-0.1,4.6c1.2,1.3,3.3,1.4,4.6,0.1l14.4-13.6
	c1.3-1.2,1.4-3.3,0.1-4.6c0,0-0.1-0.1-0.1-0.1L18.9,1.9c-1.3-1.2-3.3-1.2-4.6,0.1c-1.2,1.3-1.2,3.3,0.1,4.6l8.5,8.1H3.8
	C2,14.6,0.5,16.1,0.5,17.9z"/>
</svg>
